<?xml version="1.0" encoding="UTF-8"?>
<svg width="40px" height="40px" viewBox="0 0 40 40" version="1.1" xmlns="http://www.w3.org/2000/svg" xmlns:xlink="http://www.w3.org/1999/xlink">
    <!-- Generator: Sketch 51.3 (57544) - http://www.bohemiancoding.com/sketch -->
    <title>ic_back</title>
    <desc>Created with Sketch.</desc>
    <defs></defs>
    <g id="ic_back" stroke="none" stroke-width="1" fill="none" fill-rule="evenodd">
        <path d="M18.414,4.58320952 C18.804,4.97135238 19,5.44110476 19,5.99047619 C19,6.5498 18.802,7.02154286 18.406,7.40570476 L7.828,17.9333333 L37,17.9333333 C37.552,17.9333333 38.024,18.1284 38.414,18.5165429 C38.804,18.9046857 39,19.3744381 39,19.9238095 C39,20.473181 38.804,20.9429333 38.414,21.3310762 C38.024,21.719219 37.552,21.9142857 37,21.9142857 L7.828,21.9142857 L18.406,32.4419143 C18.802,32.8260762 19,33.297819 19,33.8571429 C19,34.4065143 18.804,34.8762667 18.414,35.2644095 C18.024,35.6525524 17.552,35.847619 17,35.847619 C16.438,35.847619 15.964,35.6565333 15.578,35.2723714 L1.578,21.3390381 C1.192,20.9349714 1,20.4632286 1,19.9238095 C1,19.3843905 1.192,18.9126476 1.578,18.508581 L15.578,4.57524762 C15.974,4.19108571 16.448,4 17,4 C17.552,4 18.024,4.19506667 18.414,4.58320952 Z" fill="#000"></path>
    </g>
</svg>